HIERARCHY
ROOT root
{
	OFFSET 0.000000 0.000000 0.000000
	CHANNELS 6 Xposition Yposition Zposition Zrotation Yrotation Xrotation
	JOINT lhip
	{
		OFFSET 0.058581 -0.082280 -0.017664
		CHANNELS 3 Zrotation Yrotation Xrotation
		JOINT lknee
		{
			OFFSET 0.043451 -0.386469 0.008037
			CHANNELS 3 Zrotation Yrotation Xrotation
			JOINT lankle
			{
				OFFSET -0.014790 -0.426874 -0.037428
				CHANNELS 3 Zrotation Yrotation Xrotation
				JOINT ltoe
				{
					OFFSET 0.041054 -0.060286 0.122042
					CHANNELS 3 Zrotation Yrotation Xrotation
					End Site
					{
						OFFSET 0.000000 0.000000 0.000000
					}
				}
			}
		}
	}
	JOINT rhip
	{
		OFFSET -0.060310 -0.090513 -0.013543
		CHANNELS 3 Zrotation Yrotation Xrotation
		JOINT rknee
		{
			OFFSET -0.043257 -0.383688 -0.004843
			CHANNELS 3 Zrotation Yrotation Xrotation
			JOINT rankle
			{
				OFFSET 0.019056 -0.420046 -0.034562
				CHANNELS 3 Zrotation Yrotation Xrotation
				JOINT rtoe
				{
					OFFSET -0.034840 -0.062106 0.130323
					CHANNELS 3 Zrotation Yrotation Xrotation
					End Site
					{
						OFFSET 0.000000 0.000000 0.000000
					}
				}
			}
		}
	}
	JOINT lowerback
	{
		OFFSET 0.004439 0.124404 -0.038385
		CHANNELS 3 Zrotation Yrotation Xrotation
		JOINT upperback
		{
			OFFSET 0.004488 0.137956 0.026820
			CHANNELS 3 Zrotation Yrotation Xrotation
			JOINT chest
			{
				OFFSET -0.002265 0.056032 0.002855
				CHANNELS 3 Zrotation Yrotation Xrotation
				JOINT lowerneck
				{
					OFFSET -0.013390 0.211636 -0.033468
					CHANNELS 3 Zrotation Yrotation Xrotation
					JOINT upperneck
					{
						OFFSET 0.010113 0.088937 0.050410
						CHANNELS 3 Zrotation Yrotation Xrotation
						End Site
						{
							OFFSET 0.000000 0.000000 0.000000
						}
					}
				}
				JOINT lclavicle
				{
					OFFSET 0.071702 0.114000 -0.018898
					CHANNELS 3 Zrotation Yrotation Xrotation
					JOINT lshoulder
					{
						OFFSET 0.122921 0.045205 -0.019046
						CHANNELS 3 Zrotation Yrotation Xrotation
						JOINT lelbow
						{
							OFFSET 0.255332 -0.015649 -0.022946
							CHANNELS 3 Zrotation Yrotation Xrotation
							JOINT lwrist
							{
								OFFSET 0.265709 0.012698 -0.007375
								CHANNELS 3 Zrotation Yrotation Xrotation
								End Site
								{
									OFFSET 0.000000 0.000000 0.000000
								}
							}
						}
					}
				}
				JOINT rclavicle
				{
					OFFSET -0.082954 0.112472 -0.023707
					CHANNELS 3 Zrotation Yrotation Xrotation
					JOINT rshoulder
					{
						OFFSET -0.113228 0.046853 -0.008472
						CHANNELS 3 Zrotation Yrotation Xrotation
						JOINT relbow
						{
							OFFSET -0.260127 -0.014369 -0.031269
							CHANNELS 3 Zrotation Yrotation Xrotation
							JOINT rwrist
							{
								OFFSET -0.269108 0.006794 -0.006027
								CHANNELS 3 Zrotation Yrotation Xrotation
								End Site
								{
									OFFSET 0.000000 0.000000 0.000000
								}
							}
						}
					}
				}
			}
		}
	}
}
MOTION
Frames: 17
Frame Time: 0.033333
0.558393 0.239015 0.992146 105.314777 2.927340 92.170515 7.291771 0.160946 -3.054473 2.278552 -6.199271 -2.902412 -6.134750 -0.757110 -4.986847 0.000000 -0.000000 0.000000 1.001827 -2.892783 -2.566453 -5.398029 -5.833238 7.221413 7.294984 -10.545047 -9.793127 0.000000 -0.000000 0.000000 -6.010460 -4.194102 -0.826527 4.036346 -16.454542 -3.449343 1.966118 -9.582580 -0.776057 -6.109438 -4.820339 30.727121 11.154807 -2.966551 2.725053 -12.181286 -25.422208 7.838699 -54.482390 -39.008766 29.282487 -58.721451 -56.981031 67.087058 -4.624258 -27.526879 -19.275985 0.138673 -5.976102 3.509888 36.227793 -14.741882 21.949821 138.448288 60.706055 168.257419 -25.060526 20.521791 -6.094193 
0.558389 0.239107 0.992144 105.231565 2.986290 92.361493 7.406289 -0.199092 -3.086388 2.300813 -5.468927 -3.091754 -6.470820 -0.985362 -4.850135 0.000000 -0.000000 0.000000 1.107609 -2.396167 -2.833175 -5.493787 -6.184962 7.399240 7.310197 -10.555163 -9.745528 0.000000 -0.000000 0.000000 -5.978104 -4.268755 -1.103442 4.122778 -16.549753 -3.244755 1.943658 -9.611231 -0.851306 -5.782282 -4.742531 30.512234 11.023423 -3.699514 2.520664 -12.340998 -25.550446 8.052253 -54.852228 -39.688221 29.000713 -55.811535 -55.953813 61.723106 -9.497066 -29.635556 -20.010020 0.175947 -6.146814 3.526426 35.114897 -13.715426 21.983446 138.517109 60.363475 169.092999 -23.995492 21.560471 -3.980739 
0.558420 0.239202 0.992134 105.174279 3.037129 92.490116 7.500473 -0.380128 -3.100541 2.305101 -5.075728 -3.213985 -6.651864 -1.086954 -4.845819 0.000000 -0.000000 0.000000 1.195811 -2.128441 -2.963002 -5.525417 -6.227139 7.433414 7.321434 -10.743464 -9.696579 0.000000 -0.000000 0.000000 -5.946567 -4.376437 -1.252901 4.241205 -16.594801 -3.207736 1.920279 -9.649948 -0.792993 -5.571602 -4.831744 30.271413 10.570126 -4.239138 2.566388 -12.670404 -25.376932 8.184673 -54.765989 -40.238924 28.419683 -53.943742 -54.638181 58.242275 -12.743140 -31.734613 -20.880033 0.377383 -6.427218 3.442848 34.002340 -12.602159 21.949888 138.936937 59.968786 170.336269 -23.430150 22.694242 -2.034923 
0.558782 0.239201 0.991921 104.983762 3.172278 92.563780 7.717992 -0.293150 -3.031960 2.232982 -5.112855 -3.346620 -6.973984 -0.824718 -4.756265 0.000000 -0.000000 0.000000 1.429375 -2.026987 -3.012113 -5.526982 -5.641499 7.306944 7.224396 -11.313135 -9.549328 0.000000 -0.000000 0.000000 -5.875571 -4.469940 -1.279412 4.341415 -16.565263 -3.507182 2.025876 -9.605304 -0.537712 -5.682665 -5.004927 30.403412 10.333802 -4.684316 2.397500 -12.936025 -25.394843 8.644294 -54.662154 -40.989845 27.252127 -52.739671 -52.752676 54.550378 -13.541482 -33.944698 -24.898634 0.301423 -6.643581 3.727533 33.447373 -11.405583 21.224305 139.675194 59.484411 172.351113 -23.936791 23.967525 -0.013694 
0.559148 0.239199 0.991869 104.813489 3.237732 92.647152 7.813154 -0.285759 -3.024546 2.229930 -4.955588 -3.390009 -7.111096 -0.749843 -4.749243 0.000000 -0.000000 0.000000 1.522313 -1.978029 -3.110432 -5.536257 -5.501699 7.305568 7.205404 -11.357050 -9.521919 0.000000 -0.000000 0.000000 -5.803239 -4.455675 -1.258668 4.367533 -16.567445 -3.753103 2.076597 -9.673286 -0.541818 -5.815496 -5.225921 30.659253 10.204995 -5.111253 2.358888 -12.863064 -25.499686 8.719908 -55.185108 -41.232043 27.339391 -51.752857 -51.730664 51.206637 -13.251852 -33.903281 -27.434541 0.175282 -6.549862 3.460857 32.438371 -10.108013 21.270883 139.345353 58.713015 171.952761 -24.777818 24.251534 0.256488 
0.559423 0.239451 0.991920 104.644582 3.316216 92.710762 7.912019 -0.217601 -2.981481 2.207472 -4.941996 -3.461568 -7.190690 -0.592393 -4.783457 0.000000 -0.000000 0.000000 1.622898 -1.921771 -3.148268 -5.515807 -5.199597 7.220594 7.155274 -11.576745 -9.482524 0.000000 -0.000000 0.000000 -5.678329 -4.477021 -1.288519 4.392209 -16.574702 -3.774741 2.104790 -9.783217 -0.654684 -5.862570 -5.443228 30.773115 9.873318 -5.307810 2.379244 -12.944004 -25.687012 8.903272 -55.478116 -41.399773 27.229772 -51.574727 -50.843443 50.000302 -12.871181 -34.019138 -30.005488 0.221848 -6.307818 3.289918 31.798554 -8.657762 20.956244 139.543639 58.152685 172.466939 -25.647066 24.627434 0.479350 
0.559555 0.239805 0.991803 104.532553 3.368217 92.863590 8.006210 -0.198135 -3.050053 2.167672 -4.814993 -3.521704 -7.233562 -0.538862 -4.702822 0.000000 -0.000000 0.000000 1.674490 -1.889040 -3.274551 -5.507169 -5.059119 7.147889 7.103001 -11.668585 -9.366304 0.000000 -0.000000 0.000000 -5.758348 -4.659370 -1.660352 4.446715 -16.687966 -3.438325 2.192452 -9.658695 -0.558101 -5.989689 -5.742667 30.739909 9.849783 -5.403294 2.322279 -12.997340 -26.018489 8.921152 -55.825210 -41.423243 27.344181 -51.135199 -50.725914 49.007118 -11.922985 -33.288464 -31.095197 0.075542 -5.787800 3.087835 31.599852 -7.566909 20.815558 139.947494 57.688899 173.328354 -25.573185 24.741268 1.243677 
0.559704 0.239864 0.991830 104.355252 3.398434 92.899810 8.087826 -0.227495 -2.948737 2.144862 -4.443681 -3.644446 -7.253990 -0.708975 -4.669576 0.000000 -0.000000 0.000000 1.698351 -1.804497 -3.330694 -5.552968 -5.243643 7.172251 7.099400 -11.348125 -9.318557 0.000000 -0.000000 0.000000 -5.806798 -4.720599 -1.695476 4.472049 -16.666796 -3.177621 2.216680 -9.590858 -0.719716 -5.818267 -6.022992 30.441186 9.739183 -5.654976 2.600428 -13.002004 -25.915900 8.814777 -56.470011 -41.434460 27.937013 -51.153857 -50.988794 49.889821 -12.743711 -33.671425 -31.254426 -0.025094 -5.394600 2.935792 31.749247 -6.578491 21.056557 139.953575 57.661137 173.613501 -25.891053 24.468918 0.494920 
0.559893 0.239788 0.991948 104.047110 3.448387 92.935422 8.127021 -0.215827 -2.797506 2.232558 -4.069102 -3.826204 -7.371802 -0.849076 -4.614569 0.000000 -0.000000 0.000000 1.753402 -1.583958 -3.410824 -5.634212 -5.451607 7.205460 7.137946 -10.986632 -9.268284 0.000000 -0.000000 0.000000 -5.782201 -4.696551 -1.610583 4.500650 -16.483960 -3.025276 2.256557 -9.487570 -1.026650 -5.639891 -6.120532 30.426631 9.685330 -5.938908 2.643478 -13.016088 -25.788852 8.799055 -57.060173 -41.382487 28.474601 -51.820180 -51.242666 52.037668 -14.645008 -34.563014 -30.539232 -0.086278 -5.060151 3.102463 31.991096 -6.115751 21.183787 139.972965 57.691038 174.002574 -25.952368 24.255085 -0.352381 
0.559867 0.239630 0.991993 103.899272 3.447443 93.046749 8.110229 -0.212893 -2.910786 2.260276 -3.993707 -3.783586 -7.274551 -0.740594 -4.632548 0.000000 -0.000000 0.000000 1.761467 -1.440876 -3.554328 -5.635159 -5.415700 7.203667 7.096701 -11.035347 -9.263029 0.000000 -0.000000 0.000000 -5.803303 -4.679523 -1.537216 4.493045 -16.330864 -3.073528 2.284837 -9.440450 -1.087574 -5.699213 -6.293211 30.350443 9.735298 -5.864032 2.684225 -13.082172 -25.768247 8.738857 -57.322317 -41.162077 28.962855 -52.449050 -52.062209 53.835557 -14.605514 -33.389326 -28.827217 0.063463 -4.815884 3.136427 32.096602 -6.226786 21.448624 140.335380 57.673200 174.129575 -25.483268 23.946893 -0.379599 
0.559688 0.239514 0.992060 103.636375 3.435756 92.849851 8.021891 -0.259670 -2.597328 2.402342 -3.749932 -3.886341 -7.315756 -0.687913 -4.628526 0.000000 -0.000000 0.000000 1.715969 -1.125669 -3.414016 -5.708076 -5.782326 7.305643 7.200577 -10.608706 -9.260928 0.000000 -0.000000 0.000000 -5.833135 -4.588284 -0.932473 4.492108 -16.067656 -3.177091 2.314834 -9.386944 -1.281664 -5.498704 -6.395988 30.072789 9.810298 -6.103660 2.787603 -12.791726 -25.680508 8.485113 -57.850765 -40.816135 29.777263 -52.785906 -53.098870 55.557419 -15.082319 -32.997337 -27.610114 -0.128528 -4.570338 2.865837 32.717202 -6.381099 22.082202 140.335567 57.854271 173.643636 -25.692743 22.780036 -2.244330 
0.559557 0.239296 0.992516 103.462906 3.219920 92.704220 7.723505 -0.817932 -2.268360 2.536431 -2.746694 -4.076964 -7.129798 -1.092736 -4.652411 0.000000 -0.000000 0.000000 1.350565 -0.548486 -3.320537 -5.810249 -7.278031 7.564781 7.477410 -9.277082 -9.417548 0.000000 -0.000000 0.000000 -6.302205 -4.345446 -0.622135 4.664425 -16.011685 -2.562188 2.285045 -9.391100 -2.015510 -4.947886 -6.152084 29.816094 10.066911 -6.621234 2.995251 -12.066426 -25.542177 7.827208 -59.032991 -40.140008 32.008428 -51.553079 -55.187372 54.751228 -16.359743 -32.575333 -26.036607 -0.433587 -4.319883 2.113195 33.705226 -7.061973 24.258649 141.524280 58.972925 172.644077 -24.754146 18.818731 -7.205737 
0.559896 0.239013 0.992823 103.538553 2.962650 92.752341 7.369886 -1.488043 -2.218198 2.701562 -1.987374 -4.218054 -6.943192 -1.397515 -4.675180 0.000000 -0.000000 0.000000 0.941818 -0.260563 -3.363269 -5.877434 -8.769843 7.748954 7.796767 -7.921105 -9.602900 0.000000 -0.000000 0.000000 -6.933467 -4.147162 -0.848147 4.847898 -16.162410 -1.654230 2.261856 -9.563990 -2.632062 -4.199398 -5.750290 29.520050 10.169912 -7.279344 3.256638 -11.326436 -25.314582 7.054210 -60.236299 -39.491098 34.324534 -49.457406 -57.042335 52.255422 -16.411160 -31.728339 -25.458558 -0.519578 -4.117067 1.396796 34.229590 -7.617946 26.546815 142.994690 60.510632 170.456543 -22.991207 13.631004 -14.311850 
0.560349 0.238674 0.993131 103.814018 2.692987 93.091191 7.043846 -2.305606 -2.513703 2.833822 -1.202604 -4.304346 -6.670251 -1.748471 -4.768484 0.000000 -0.000000 0.000000 0.508101 0.035177 -3.652429 -5.862363 -10.191054 7.911151 8.171375 -6.837691 -9.721861 0.000000 -0.000000 0.000000 -7.668089 -3.991693 -1.673319 5.155791 -16.472132 -0.399696 2.264969 -9.855086 -3.289662 -3.387130 -5.217997 29.054868 9.877294 -8.068336 3.567619 -10.754658 -25.290592 6.444936 -61.295667 -38.731557 36.368796 -46.788282 -58.900973 49.495347 -18.854962 -31.587352 -23.602792 -0.489929 -3.923883 0.727738 34.421857 -8.629703 28.789958 146.057188 61.826299 170.288607 -15.224341 8.478550 -21.329820 
0.560393 0.238411 0.993267 103.989973 2.672321 93.309544 7.137968 -1.675621 -2.978566 2.609558 -1.587450 -3.958169 -6.696739 -2.113430 -4.916349 0.000000 -0.000000 0.000000 0.476133 0.037830 -3.777467 -5.609496 -9.732396 7.749568 8.030315 -7.581911 -9.590422 0.000000 -0.000000 0.000000 -8.015447 -4.167107 -1.966064 5.324978 -16.322069 0.093518 2.462729 -9.988629 -3.538243 -3.483427 -5.749154 28.534155 9.331161 -7.670741 4.569971 -10.668006 -25.934327 6.824786 -61.239125 -38.202358 35.820470 -45.100685 -60.251843 49.779570 -22.977913 -33.567100 -22.265823 -0.828927 -3.339705 0.336797 35.670700 -10.546433 27.433807 150.034652 63.071954 173.575905 9.384445 12.259071 -29.367671 
0.560899 0.238234 0.993308 104.195038 2.758083 93.291845 7.296817 -0.620616 -3.214547 2.438033 -2.717704 -3.600545 -6.879831 -2.177965 -5.034175 0.000000 -0.000000 0.000000 0.662777 -0.399921 -3.617757 -5.428589 -8.759472 7.457253 7.604123 -8.543716 -9.438871 0.000000 -0.000000 0.000000 -7.939704 -4.478919 -1.576134 5.045979 -16.035362 -0.508206 2.689100 -9.993928 -3.217933 -4.290041 -6.646791 28.789846 9.619629 -6.555678 5.032943 -10.875551 -26.275054 7.370859 -60.771017 -38.264560 34.817580 -45.539865 -60.222726 51.496731 -23.031869 -33.833853 -23.156838 -1.449516 -2.883770 0.578063 36.937476 -11.342852 25.588249 148.155833 64.081187 169.668816 18.589082 17.668998 -37.606977 
0.561517 0.238187 0.993039 104.306455 2.813833 93.346975 7.402875 -0.624413 -3.248873 2.395130 -2.868159 -3.641746 -6.884307 -2.070689 -4.939956 0.000000 -0.000000 0.000000 0.749411 -0.586744 -3.627782 -5.395869 -8.510578 7.417160 7.659265 -8.769029 -9.447986 0.000000 -0.000000 0.000000 -7.862616 -4.492112 -1.515662 5.043822 -16.056158 -0.740671 2.731549 -9.952968 -2.971744 -4.441919 -6.599328 28.713065 9.638834 -6.486955 4.907710 -10.956051 -26.151914 7.373412 -60.691751 -38.533905 34.522865 -46.287550 -59.742684 52.127541 -22.568110 -33.631621 -23.175142 -1.245159 -3.227898 0.807400 36.369087 -11.493563 25.337386 146.788781 63.220850 169.800960 17.376705 17.565930 -33.335476 
